<?xml version="1.0" encoding="UTF-8"?><svg t="1678240966310" class="icon" viewBox="0 0 1536 1024" version="1.1" xmlns="http://www.w3.org/2000/svg" p-id="11252" xmlns:xlink="http://www.w3.org/1999/xlink" width="120" height="80"><path d="M100.1184 768.832C175.0624 361.28 371.7344 211.84 604.1824 149.312c290.816-73.344 547.072-20.288 791.168-129.664 147.84-65.536 142.976 52.416 139.456 70.4-34.88 273.536-191.36 530.688-518.848 655.168C659.7344 878.208 306.1344 629.888 51.6064 1019.392A12.8 12.8 0 0 1 41.8784 1024h-31.36a11.008 11.008 0 0 1-8.704-4.48 9.6 9.6 0 0 1-1.088-9.28c97.216-180.224 238.464-336.256 412.16-455.36a2039.232 2039.232 0 0 1 566.912-264c17.088-4.608 9.728-29.824-7.36-27.52a1745.92 1745.92 0 0 0-460.16 159.552 1349.568 1349.568 0 0 0-412.16 345.92" fill="#6DD77F" p-id="11253"></path></svg>